<mxfile host="app.diagrams.net" modified="2024-02-21T04:27:54.066Z" agent="Mozilla/5.0 (Macintosh; Intel Mac OS X 10_15_7) AppleWebKit/605.1.15 (KHTML, like Gecko) Version/17.2.1 Safari/605.1.15" etag="O78KC46Bl1fDmLF0doEL" version="23.1.5" type="github">
  <diagram name="Page-1" id="2YBvvXClWsGukQMizWep">
    <mxGraphModel dx="2255" dy="2071" grid="1" gridSize="10" guides="1" tooltips="1" connect="1" arrows="1" fold="1" page="1" pageScale="1" pageWidth="850" pageHeight="1100" math="0" shadow="0">
      <root>
        <mxCell id="0" />
        <mxCell id="1" parent="0" />
        <mxCell id="aM9ryv3xv72pqoxQDRHE-5" value="SignUp Form" style="shape=umlLifeline;perimeter=lifelinePerimeter;whiteSpace=wrap;html=1;container=0;dropTarget=0;collapsible=0;recursiveResize=0;outlineConnect=0;portConstraint=eastwest;newEdgeStyle={&quot;edgeStyle&quot;:&quot;elbowEdgeStyle&quot;,&quot;elbow&quot;:&quot;vertical&quot;,&quot;curved&quot;:0,&quot;rounded&quot;:0};" parent="1" vertex="1">
          <mxGeometry x="-410" y="-860" width="100" height="290" as="geometry" />
        </mxCell>
        <mxCell id="aM9ryv3xv72pqoxQDRHE-6" value="" style="html=1;points=[];perimeter=orthogonalPerimeter;outlineConnect=0;targetShapes=umlLifeline;portConstraint=eastwest;newEdgeStyle={&quot;edgeStyle&quot;:&quot;elbowEdgeStyle&quot;,&quot;elbow&quot;:&quot;vertical&quot;,&quot;curved&quot;:0,&quot;rounded&quot;:0};" parent="aM9ryv3xv72pqoxQDRHE-5" vertex="1">
          <mxGeometry x="45" y="110" width="10" height="20" as="geometry" />
        </mxCell>
        <mxCell id="aM9ryv3xv72pqoxQDRHE-7" value="&lt;font style=&quot;font-size: 10px;&quot;&gt;userId, password, nickName 전송&lt;/font&gt;" style="html=1;verticalAlign=bottom;endArrow=block;edgeStyle=elbowEdgeStyle;elbow=vertical;curved=0;rounded=0;" parent="1" target="aM9ryv3xv72pqoxQDRHE-6" edge="1">
          <mxGeometry x="-0.002" relative="1" as="geometry">
            <mxPoint x="-535" y="-750" as="sourcePoint" />
            <Array as="points">
              <mxPoint x="-450" y="-750" />
            </Array>
            <mxPoint as="offset" />
          </mxGeometry>
        </mxCell>
        <mxCell id="__wuMlbI5ePI79pT0euX-13" value="Actor" style="shape=umlActor;verticalLabelPosition=bottom;verticalAlign=top;html=1;outlineConnect=0;" vertex="1" parent="1">
          <mxGeometry x="-550" y="-880" width="30" height="60" as="geometry" />
        </mxCell>
        <mxCell id="__wuMlbI5ePI79pT0euX-14" value="" style="endArrow=none;dashed=1;html=1;rounded=0;" edge="1" parent="1" source="__wuMlbI5ePI79pT0euX-64">
          <mxGeometry width="50" height="50" relative="1" as="geometry">
            <mxPoint x="-535.24" y="-583" as="sourcePoint" />
            <mxPoint x="-535.24" y="-793" as="targetPoint" />
          </mxGeometry>
        </mxCell>
        <mxCell id="__wuMlbI5ePI79pT0euX-38" value="&lt;h1 style=&quot;font-size: 10px;&quot;&gt;&lt;span style=&quot;caret-color: rgb(255, 181, 112);&quot;&gt;&lt;font color=&quot;#ff6666&quot;&gt;form 미작성시 button disabled&lt;/font&gt;&lt;/span&gt;&lt;/h1&gt;&lt;h1 style=&quot;font-size: 10px;&quot;&gt;&lt;span style=&quot;font-weight: 400;&quot;&gt;버튼을 여러 번 클릭 시 사용자 경험 저해, 불필요한 요청으로 인한 예기치 않은 오류를 불러올 수 있으므로 form 미작성시 disabled&lt;/span&gt;&lt;br&gt;&lt;/h1&gt;" style="text;html=1;spacing=5;spacingTop=-20;whiteSpace=wrap;overflow=hidden;rounded=0;align=left;" vertex="1" parent="1">
          <mxGeometry x="-780" y="-712.5" width="190" height="55" as="geometry" />
        </mxCell>
        <mxCell id="__wuMlbI5ePI79pT0euX-51" value="&lt;font style=&quot;font-size: 8px;&quot;&gt;alert(&quot;회원가입 성공&quot;)&lt;br&gt;로그인 페이지 이동&lt;/font&gt;" style="shape=callout;whiteSpace=wrap;html=1;perimeter=calloutPerimeter;position2=0.67;direction=north;base=5;size=35;position=0.67;fillColor=#d5e8d4;strokeColor=#82b366;align=center;" vertex="1" parent="1">
          <mxGeometry x="-481" y="-650" width="115" height="30" as="geometry" />
        </mxCell>
        <mxCell id="__wuMlbI5ePI79pT0euX-52" value="Server" style="shape=umlLifeline;perimeter=lifelinePerimeter;whiteSpace=wrap;html=1;container=0;dropTarget=0;collapsible=0;recursiveResize=0;outlineConnect=0;portConstraint=eastwest;newEdgeStyle={&quot;edgeStyle&quot;:&quot;elbowEdgeStyle&quot;,&quot;elbow&quot;:&quot;vertical&quot;,&quot;curved&quot;:0,&quot;rounded&quot;:0};" vertex="1" parent="1">
          <mxGeometry x="-240" y="-860" width="100" height="290" as="geometry" />
        </mxCell>
        <mxCell id="__wuMlbI5ePI79pT0euX-54" value="" style="html=1;points=[];perimeter=orthogonalPerimeter;outlineConnect=0;targetShapes=umlLifeline;portConstraint=eastwest;newEdgeStyle={&quot;edgeStyle&quot;:&quot;elbowEdgeStyle&quot;,&quot;elbow&quot;:&quot;vertical&quot;,&quot;curved&quot;:0,&quot;rounded&quot;:0};" vertex="1" parent="__wuMlbI5ePI79pT0euX-52">
          <mxGeometry x="45" y="130" width="10" height="100" as="geometry" />
        </mxCell>
        <mxCell id="__wuMlbI5ePI79pT0euX-55" value="인증 실패" style="html=1;verticalAlign=bottom;endArrow=open;dashed=1;endSize=8;edgeStyle=elbowEdgeStyle;elbow=vertical;curved=0;rounded=0;" edge="1" parent="1" target="aM9ryv3xv72pqoxQDRHE-5">
          <mxGeometry x="-0.002" relative="1" as="geometry">
            <mxPoint x="-350" y="-679.76" as="targetPoint" />
            <Array as="points" />
            <mxPoint x="-195" y="-679.7944827586207" as="sourcePoint" />
            <mxPoint as="offset" />
          </mxGeometry>
        </mxCell>
        <mxCell id="__wuMlbI5ePI79pT0euX-59" value="인증 성공" style="html=1;verticalAlign=bottom;endArrow=open;dashed=1;endSize=8;edgeStyle=elbowEdgeStyle;elbow=vertical;curved=0;rounded=0;" edge="1" parent="1" target="aM9ryv3xv72pqoxQDRHE-5">
          <mxGeometry x="0.002" relative="1" as="geometry">
            <mxPoint x="-355" y="-630" as="targetPoint" />
            <Array as="points" />
            <mxPoint x="-195" y="-630" as="sourcePoint" />
            <mxPoint as="offset" />
          </mxGeometry>
        </mxCell>
        <mxCell id="__wuMlbI5ePI79pT0euX-60" value="&lt;font size=&quot;1&quot;&gt;사용자 인증 요청&lt;/font&gt;" style="html=1;verticalAlign=bottom;endArrow=block;edgeStyle=elbowEdgeStyle;elbow=vertical;curved=0;rounded=0;" edge="1" parent="1" target="__wuMlbI5ePI79pT0euX-54">
          <mxGeometry x="0.0323" relative="1" as="geometry">
            <mxPoint x="-350" y="-730" as="sourcePoint" />
            <Array as="points">
              <mxPoint x="-360" y="-730" />
            </Array>
            <mxPoint x="-200" y="-730" as="targetPoint" />
            <mxPoint as="offset" />
          </mxGeometry>
        </mxCell>
        <mxCell id="__wuMlbI5ePI79pT0euX-65" value="" style="endArrow=none;dashed=1;html=1;rounded=0;" edge="1" parent="1" target="__wuMlbI5ePI79pT0euX-64">
          <mxGeometry width="50" height="50" relative="1" as="geometry">
            <mxPoint x="-535.24" y="-583" as="sourcePoint" />
            <mxPoint x="-535.24" y="-793" as="targetPoint" />
          </mxGeometry>
        </mxCell>
        <mxCell id="__wuMlbI5ePI79pT0euX-64" value="" style="rounded=0;whiteSpace=wrap;html=1;" vertex="1" parent="1">
          <mxGeometry x="-540" y="-790" width="10" height="40" as="geometry" />
        </mxCell>
        <mxCell id="__wuMlbI5ePI79pT0euX-67" value="&lt;font style=&quot;font-size: 8px;&quot;&gt;alert(&quot;회원가입 실패&quot;)&lt;br&gt;유효성검사 message&lt;br&gt;&lt;/font&gt;" style="shape=callout;whiteSpace=wrap;html=1;perimeter=calloutPerimeter;position2=0.33;direction=north;base=5;size=35;position=0.67;fillColor=#f8cecc;strokeColor=#b85450;" vertex="1" parent="1">
          <mxGeometry x="-481" y="-700" width="115" height="30" as="geometry" />
        </mxCell>
        <mxCell id="__wuMlbI5ePI79pT0euX-87" value="SignIn Form" style="shape=umlLifeline;perimeter=lifelinePerimeter;whiteSpace=wrap;html=1;container=0;dropTarget=0;collapsible=0;recursiveResize=0;outlineConnect=0;portConstraint=eastwest;newEdgeStyle={&quot;edgeStyle&quot;:&quot;elbowEdgeStyle&quot;,&quot;elbow&quot;:&quot;vertical&quot;,&quot;curved&quot;:0,&quot;rounded&quot;:0};" vertex="1" parent="1">
          <mxGeometry x="-410" y="-540" width="100" height="290" as="geometry" />
        </mxCell>
        <mxCell id="__wuMlbI5ePI79pT0euX-88" value="" style="html=1;points=[];perimeter=orthogonalPerimeter;outlineConnect=0;targetShapes=umlLifeline;portConstraint=eastwest;newEdgeStyle={&quot;edgeStyle&quot;:&quot;elbowEdgeStyle&quot;,&quot;elbow&quot;:&quot;vertical&quot;,&quot;curved&quot;:0,&quot;rounded&quot;:0};" vertex="1" parent="__wuMlbI5ePI79pT0euX-87">
          <mxGeometry x="45" y="110" width="10" height="20" as="geometry" />
        </mxCell>
        <mxCell id="__wuMlbI5ePI79pT0euX-89" value="&lt;font style=&quot;font-size: 10px;&quot;&gt;userId, password 전송&lt;/font&gt;" style="html=1;verticalAlign=bottom;endArrow=block;edgeStyle=elbowEdgeStyle;elbow=vertical;curved=0;rounded=0;" edge="1" parent="1" target="__wuMlbI5ePI79pT0euX-88">
          <mxGeometry x="-0.002" relative="1" as="geometry">
            <mxPoint x="-535" y="-430" as="sourcePoint" />
            <Array as="points">
              <mxPoint x="-450" y="-430" />
            </Array>
            <mxPoint as="offset" />
          </mxGeometry>
        </mxCell>
        <mxCell id="__wuMlbI5ePI79pT0euX-90" value="Actor" style="shape=umlActor;verticalLabelPosition=bottom;verticalAlign=top;html=1;outlineConnect=0;" vertex="1" parent="1">
          <mxGeometry x="-550" y="-560" width="30" height="60" as="geometry" />
        </mxCell>
        <mxCell id="__wuMlbI5ePI79pT0euX-91" value="" style="endArrow=none;dashed=1;html=1;rounded=0;" edge="1" parent="1" source="__wuMlbI5ePI79pT0euX-99">
          <mxGeometry width="50" height="50" relative="1" as="geometry">
            <mxPoint x="-535.24" y="-263" as="sourcePoint" />
            <mxPoint x="-535.24" y="-473" as="targetPoint" />
          </mxGeometry>
        </mxCell>
        <mxCell id="__wuMlbI5ePI79pT0euX-92" value="&lt;font style=&quot;font-size: 8px;&quot;&gt;메인 페이지 이동&lt;/font&gt;" style="shape=callout;whiteSpace=wrap;html=1;perimeter=calloutPerimeter;position2=0.67;direction=north;base=5;size=35;position=0.67;fillColor=#d5e8d4;strokeColor=#82b366;align=center;" vertex="1" parent="1">
          <mxGeometry x="-481" y="-320" width="115" height="30" as="geometry" />
        </mxCell>
        <mxCell id="__wuMlbI5ePI79pT0euX-93" value="Server" style="shape=umlLifeline;perimeter=lifelinePerimeter;whiteSpace=wrap;html=1;container=0;dropTarget=0;collapsible=0;recursiveResize=0;outlineConnect=0;portConstraint=eastwest;newEdgeStyle={&quot;edgeStyle&quot;:&quot;elbowEdgeStyle&quot;,&quot;elbow&quot;:&quot;vertical&quot;,&quot;curved&quot;:0,&quot;rounded&quot;:0};" vertex="1" parent="1">
          <mxGeometry x="-240" y="-540" width="100" height="290" as="geometry" />
        </mxCell>
        <mxCell id="__wuMlbI5ePI79pT0euX-94" value="" style="html=1;points=[];perimeter=orthogonalPerimeter;outlineConnect=0;targetShapes=umlLifeline;portConstraint=eastwest;newEdgeStyle={&quot;edgeStyle&quot;:&quot;elbowEdgeStyle&quot;,&quot;elbow&quot;:&quot;vertical&quot;,&quot;curved&quot;:0,&quot;rounded&quot;:0};" vertex="1" parent="__wuMlbI5ePI79pT0euX-93">
          <mxGeometry x="45" y="130" width="10" height="100" as="geometry" />
        </mxCell>
        <mxCell id="__wuMlbI5ePI79pT0euX-95" value="인증 실패" style="html=1;verticalAlign=bottom;endArrow=open;dashed=1;endSize=8;edgeStyle=elbowEdgeStyle;elbow=vertical;curved=0;rounded=0;" edge="1" parent="1" target="__wuMlbI5ePI79pT0euX-87">
          <mxGeometry x="-0.002" relative="1" as="geometry">
            <mxPoint x="-350" y="-359.76" as="targetPoint" />
            <Array as="points" />
            <mxPoint x="-195" y="-359.7944827586207" as="sourcePoint" />
            <mxPoint as="offset" />
          </mxGeometry>
        </mxCell>
        <mxCell id="__wuMlbI5ePI79pT0euX-96" value="인증 성공" style="html=1;verticalAlign=bottom;endArrow=open;dashed=1;endSize=8;edgeStyle=elbowEdgeStyle;elbow=vertical;curved=0;rounded=0;" edge="1" parent="1" target="__wuMlbI5ePI79pT0euX-87">
          <mxGeometry x="0.002" relative="1" as="geometry">
            <mxPoint x="-355" y="-310" as="targetPoint" />
            <Array as="points" />
            <mxPoint x="-195" y="-310" as="sourcePoint" />
            <mxPoint as="offset" />
          </mxGeometry>
        </mxCell>
        <mxCell id="__wuMlbI5ePI79pT0euX-97" value="&lt;font size=&quot;1&quot;&gt;사용자 인증 요청&lt;/font&gt;" style="html=1;verticalAlign=bottom;endArrow=block;edgeStyle=elbowEdgeStyle;elbow=vertical;curved=0;rounded=0;" edge="1" parent="1" target="__wuMlbI5ePI79pT0euX-94">
          <mxGeometry x="0.0323" relative="1" as="geometry">
            <mxPoint x="-350" y="-410" as="sourcePoint" />
            <Array as="points">
              <mxPoint x="-360" y="-410" />
            </Array>
            <mxPoint x="-200" y="-410" as="targetPoint" />
            <mxPoint as="offset" />
          </mxGeometry>
        </mxCell>
        <mxCell id="__wuMlbI5ePI79pT0euX-98" value="" style="endArrow=none;dashed=1;html=1;rounded=0;" edge="1" parent="1" target="__wuMlbI5ePI79pT0euX-99">
          <mxGeometry width="50" height="50" relative="1" as="geometry">
            <mxPoint x="-535.24" y="-263" as="sourcePoint" />
            <mxPoint x="-535.24" y="-473" as="targetPoint" />
          </mxGeometry>
        </mxCell>
        <mxCell id="__wuMlbI5ePI79pT0euX-99" value="" style="rounded=0;whiteSpace=wrap;html=1;" vertex="1" parent="1">
          <mxGeometry x="-540" y="-470" width="10" height="40" as="geometry" />
        </mxCell>
        <mxCell id="__wuMlbI5ePI79pT0euX-100" value="&lt;p style=&quot;line-height: 100%;&quot;&gt;&lt;font style=&quot;font-size: 8px;&quot;&gt;alert(&quot;아이디와 비밀번호를 확인해주세요&quot;) &amp;nbsp; &amp;nbsp; &amp;nbsp;&amp;nbsp;&lt;/font&gt;&lt;font style=&quot;font-size: 8px;&quot;&gt;&amp;nbsp;&amp;nbsp;&lt;/font&gt;&lt;span style=&quot;font-size: 8px;&quot;&gt;유효성검사 message&lt;/span&gt;&lt;/p&gt;" style="shape=callout;whiteSpace=wrap;html=1;perimeter=calloutPerimeter;position2=0.33;direction=north;base=5;size=34;position=0.5;fillColor=#f8cecc;strokeColor=#b85450;" vertex="1" parent="1">
          <mxGeometry x="-481" y="-390" width="115" height="40" as="geometry" />
        </mxCell>
        <mxCell id="__wuMlbI5ePI79pT0euX-102" value="&lt;h1 style=&quot;font-size: 10px;&quot;&gt;&lt;font color=&quot;#ff6666&quot;&gt;&lt;span style=&quot;caret-color: rgb(255, 181, 112);&quot;&gt;로그인 시 토큰 세팅&lt;/span&gt;&lt;/font&gt;&lt;/h1&gt;&lt;h1 style=&quot;font-size: 10px;&quot;&gt;&lt;span style=&quot;font-weight: 400;&quot;&gt;userId, nickName, profileUrl을 localStorage.setItem()하여 나중에&amp;nbsp;&lt;/span&gt;&lt;span style=&quot;font-weight: 400;&quot;&gt;post 나 comment 에서 user info를 활용할 수 있게함&lt;/span&gt;&lt;/h1&gt;&lt;div style=&quot;font-size: 11px;&quot;&gt;&lt;font style=&quot;font-size: 11px;&quot;&gt;headers에 res로 전달받은 token 세팅&lt;/font&gt;&lt;/div&gt;&lt;div style=&quot;font-size: 11px;&quot;&gt;&lt;span style=&quot;font-weight: 400;&quot;&gt;&lt;br&gt;&lt;/span&gt;&lt;/div&gt;&lt;div&gt;&lt;span style=&quot;font-weight: 400;&quot;&gt;&lt;br&gt;&lt;/span&gt;&lt;/div&gt;" style="text;html=1;spacing=5;spacingTop=-20;whiteSpace=wrap;overflow=hidden;rounded=0;align=left;" vertex="1" parent="1">
          <mxGeometry x="-780" y="-397" width="190" height="97" as="geometry" />
        </mxCell>
        <mxCell id="__wuMlbI5ePI79pT0euX-109" value="&lt;div style=&quot;border-color: var(--border-color); caret-color: rgb(0, 0, 0); color: rgb(0, 0, 0); font-family: Helvetica; font-size: 12px; font-style: normal; font-variant-caps: normal; font-weight: 400; letter-spacing: normal; text-indent: 0px; text-transform: none; word-spacing: 0px; -webkit-text-stroke-width: 0px; text-decoration: none; text-align: left;&quot;&gt;&lt;span style=&quot;border-color: var(--border-color); font-size: 10px;&quot;&gt;baseUrl: &quot;https://topdragon.co.kr/mobithon&lt;/span&gt;&lt;/div&gt;&lt;span style=&quot;border-color: var(--border-color); caret-color: rgb(0, 0, 0); color: rgb(0, 0, 0); font-family: Helvetica; font-size: 12px; font-style: normal; font-variant-caps: normal; font-weight: 400; letter-spacing: normal; text-indent: 0px; text-transform: none; word-spacing: 0px; -webkit-text-stroke-width: 0px; text-decoration: none; text-align: start;&quot; data-metadata=&quot;&lt;!--(figmeta)eyJmaWxlS2V5IjoidzhsY2Z1ajFneWN0NUdHNUZXS25qMyIsInBhc3RlSUQiOjE2NjQ2ODA0OSwiZGF0YVR5cGUiOiJzY2VuZSJ9Cg==(/figmeta)--&gt;&quot;&gt;&lt;div style=&quot;border-color: var(--border-color); text-align: left;&quot;&gt;&lt;font style=&quot;border-color: var(--border-color);&quot; size=&quot;1&quot;&gt;&lt;br style=&quot;border-color: var(--border-color);&quot;&gt;&lt;/font&gt;&lt;/div&gt;&lt;/span&gt;&lt;span style=&quot;border-color: var(--border-color); caret-color: rgb(0, 0, 0); color: rgb(0, 0, 0); font-family: Helvetica; font-size: 12px; font-style: normal; font-variant-caps: normal; font-weight: 400; letter-spacing: normal; text-align: center; text-indent: 0px; text-transform: none; word-spacing: 0px; -webkit-text-stroke-width: 0px; text-decoration: none;&quot;&gt;&lt;div style=&quot;border-color: var(--border-color); caret-color: rgb(0, 0, 0); color: rgb(0, 0, 0); font-size: 10px; font-style: normal; font-variant-caps: normal; font-weight: 400; letter-spacing: normal; text-transform: none; word-spacing: 0px; text-decoration: none; -webkit-text-stroke-width: 0px; text-align: left;&quot;&gt;params: {&lt;/div&gt;&lt;span style=&quot;border-color: var(--border-color); caret-color: rgb(0, 0, 0); color: rgb(0, 0, 0); font-size: 10px; font-style: normal; font-variant-caps: normal; font-weight: 400; letter-spacing: normal; text-transform: none; word-spacing: 0px; text-decoration: none; -webkit-text-stroke-width: 0px;&quot;&gt;&lt;div style=&quot;border-color: var(--border-color); text-align: left;&quot;&gt;&amp;nbsp; &amp;nbsp;&lt;span style=&quot;white-space: pre;&quot;&gt;&amp;nbsp;   &lt;/span&gt;&amp;nbsp;&lt;span style=&quot;border-color: var(--border-color);&quot;&gt;apiKey: &quot;mobi2nd1234&quot;,&lt;/span&gt;&lt;/div&gt;&lt;/span&gt;&lt;div style=&quot;border-color: var(--border-color); caret-color: rgb(0, 0, 0); color: rgb(0, 0, 0); font-size: 10px; font-style: normal; font-variant-caps: normal; font-weight: 400; letter-spacing: normal; text-transform: none; word-spacing: 0px; text-decoration: none; -webkit-text-stroke-width: 0px; text-align: left;&quot;&gt;&lt;span style=&quot;white-space: pre;&quot;&gt;&#x9;&lt;/span&gt;pair: 1 (본인 페어에 맞는 페어 값 입력)&lt;/div&gt;&lt;div style=&quot;border-color: var(--border-color); caret-color: rgb(0, 0, 0); color: rgb(0, 0, 0); font-size: 10px; font-style: normal; font-variant-caps: normal; font-weight: 400; letter-spacing: normal; text-transform: none; word-spacing: 0px; text-decoration: none; -webkit-text-stroke-width: 0px; text-align: left;&quot;&gt;}&lt;/div&gt;&lt;div style=&quot;border-color: var(--border-color); text-align: left;&quot;&gt;&lt;font style=&quot;border-color: var(--border-color);&quot; size=&quot;1&quot;&gt;&lt;br style=&quot;border-color: var(--border-color);&quot;&gt;&lt;/font&gt;&lt;/div&gt;&lt;font style=&quot;border-color: var(--border-color);&quot; size=&quot;1&quot;&gt;&lt;div style=&quot;border-color: var(--border-color); text-align: left;&quot;&gt;headers: {&lt;/div&gt;&lt;/font&gt;&lt;font style=&quot;border-color: var(--border-color);&quot; size=&quot;1&quot;&gt;&lt;div style=&quot;border-color: var(--border-color); text-align: left;&quot;&gt;&lt;span style=&quot;white-space: pre;&quot;&gt;&#x9;&lt;/span&gt;authorization: `Bearer ${accessToken}`&lt;/div&gt;&lt;/font&gt;&lt;font style=&quot;border-color: var(--border-color);&quot; size=&quot;1&quot;&gt;&lt;div style=&quot;border-color: var(--border-color); text-align: left;&quot;&gt;}&lt;/div&gt;&lt;/font&gt;&lt;/span&gt;" style="shape=note;whiteSpace=wrap;html=1;backgroundOutline=1;darkOpacity=0.05;" vertex="1" parent="1">
          <mxGeometry x="-460" y="-1070" width="260" height="150" as="geometry" />
        </mxCell>
        <mxCell id="__wuMlbI5ePI79pT0euX-110" value="Home Page" style="shape=umlLifeline;perimeter=lifelinePerimeter;whiteSpace=wrap;html=1;container=0;dropTarget=0;collapsible=0;recursiveResize=0;outlineConnect=0;portConstraint=eastwest;newEdgeStyle={&quot;edgeStyle&quot;:&quot;elbowEdgeStyle&quot;,&quot;elbow&quot;:&quot;vertical&quot;,&quot;curved&quot;:0,&quot;rounded&quot;:0};" vertex="1" parent="1">
          <mxGeometry x="-410" y="-160" width="100" height="480" as="geometry" />
        </mxCell>
        <mxCell id="__wuMlbI5ePI79pT0euX-111" value="" style="html=1;points=[];perimeter=orthogonalPerimeter;outlineConnect=0;targetShapes=umlLifeline;portConstraint=eastwest;newEdgeStyle={&quot;edgeStyle&quot;:&quot;elbowEdgeStyle&quot;,&quot;elbow&quot;:&quot;vertical&quot;,&quot;curved&quot;:0,&quot;rounded&quot;:0};" vertex="1" parent="__wuMlbI5ePI79pT0euX-110">
          <mxGeometry x="45" y="110" width="10" height="20" as="geometry" />
        </mxCell>
        <mxCell id="__wuMlbI5ePI79pT0euX-154" style="edgeStyle=elbowEdgeStyle;rounded=0;orthogonalLoop=1;jettySize=auto;html=1;elbow=vertical;curved=0;" edge="1" parent="__wuMlbI5ePI79pT0euX-110" source="__wuMlbI5ePI79pT0euX-148">
          <mxGeometry relative="1" as="geometry">
            <mxPoint x="-130" y="290" as="targetPoint" />
          </mxGeometry>
        </mxCell>
        <mxCell id="__wuMlbI5ePI79pT0euX-155" value="PostList 화면 랜더" style="edgeLabel;html=1;align=center;verticalAlign=middle;resizable=0;points=[];" vertex="1" connectable="0" parent="__wuMlbI5ePI79pT0euX-154">
          <mxGeometry x="0.9151" y="-3" relative="1" as="geometry">
            <mxPoint x="82" y="-7" as="offset" />
          </mxGeometry>
        </mxCell>
        <mxCell id="__wuMlbI5ePI79pT0euX-148" value="" style="html=1;points=[];perimeter=orthogonalPerimeter;outlineConnect=0;targetShapes=umlLifeline;portConstraint=eastwest;newEdgeStyle={&quot;edgeStyle&quot;:&quot;elbowEdgeStyle&quot;,&quot;elbow&quot;:&quot;vertical&quot;,&quot;curved&quot;:0,&quot;rounded&quot;:0};" vertex="1" parent="__wuMlbI5ePI79pT0euX-110">
          <mxGeometry x="45" y="230" width="10" height="60" as="geometry" />
        </mxCell>
        <mxCell id="__wuMlbI5ePI79pT0euX-160" value="" style="html=1;points=[];perimeter=orthogonalPerimeter;outlineConnect=0;targetShapes=umlLifeline;portConstraint=eastwest;newEdgeStyle={&quot;edgeStyle&quot;:&quot;elbowEdgeStyle&quot;,&quot;elbow&quot;:&quot;vertical&quot;,&quot;curved&quot;:0,&quot;rounded&quot;:0};" vertex="1" parent="__wuMlbI5ePI79pT0euX-110">
          <mxGeometry x="45" y="340" width="10" height="20" as="geometry" />
        </mxCell>
        <mxCell id="__wuMlbI5ePI79pT0euX-112" value="&lt;font size=&quot;1&quot;&gt;getPosts()&lt;/font&gt;" style="html=1;verticalAlign=bottom;endArrow=block;edgeStyle=elbowEdgeStyle;elbow=vertical;curved=0;rounded=0;" edge="1" parent="1" target="__wuMlbI5ePI79pT0euX-111">
          <mxGeometry x="1" y="-87" relative="1" as="geometry">
            <mxPoint x="-535" y="-50" as="sourcePoint" />
            <Array as="points">
              <mxPoint x="-450" y="-50" />
            </Array>
            <mxPoint x="85" y="-67" as="offset" />
          </mxGeometry>
        </mxCell>
        <mxCell id="__wuMlbI5ePI79pT0euX-297" value="메인 페이지" style="edgeLabel;html=1;align=center;verticalAlign=middle;resizable=0;points=[];" vertex="1" connectable="0" parent="__wuMlbI5ePI79pT0euX-112">
          <mxGeometry x="0.9118" y="1" relative="1" as="geometry">
            <mxPoint x="-67" y="-9" as="offset" />
          </mxGeometry>
        </mxCell>
        <mxCell id="__wuMlbI5ePI79pT0euX-113" value="Actor" style="shape=umlActor;verticalLabelPosition=bottom;verticalAlign=top;html=1;outlineConnect=0;" vertex="1" parent="1">
          <mxGeometry x="-550" y="-180" width="30" height="60" as="geometry" />
        </mxCell>
        <mxCell id="__wuMlbI5ePI79pT0euX-114" value="" style="endArrow=none;dashed=1;html=1;rounded=0;" edge="1" parent="1" source="__wuMlbI5ePI79pT0euX-122">
          <mxGeometry width="50" height="50" relative="1" as="geometry">
            <mxPoint x="-535.24" y="117" as="sourcePoint" />
            <mxPoint x="-535.24" y="-93" as="targetPoint" />
          </mxGeometry>
        </mxCell>
        <mxCell id="__wuMlbI5ePI79pT0euX-115" value="&lt;font style=&quot;font-size: 8px;&quot;&gt;Posts.map(() =&amp;gt; &amp;lt;OnePost/&amp;gt;)&lt;/font&gt;" style="shape=callout;whiteSpace=wrap;html=1;perimeter=calloutPerimeter;position2=0.67;direction=north;base=5;size=35;position=0.67;fillColor=#d5e8d4;strokeColor=#82b366;align=center;" vertex="1" parent="1">
          <mxGeometry x="-481" y="60" width="115" height="30" as="geometry" />
        </mxCell>
        <mxCell id="__wuMlbI5ePI79pT0euX-116" value="Server" style="shape=umlLifeline;perimeter=lifelinePerimeter;whiteSpace=wrap;html=1;container=0;dropTarget=0;collapsible=0;recursiveResize=0;outlineConnect=0;portConstraint=eastwest;newEdgeStyle={&quot;edgeStyle&quot;:&quot;elbowEdgeStyle&quot;,&quot;elbow&quot;:&quot;vertical&quot;,&quot;curved&quot;:0,&quot;rounded&quot;:0};" vertex="1" parent="1">
          <mxGeometry x="-240" y="-160" width="100" height="480" as="geometry" />
        </mxCell>
        <mxCell id="__wuMlbI5ePI79pT0euX-117" value="" style="html=1;points=[];perimeter=orthogonalPerimeter;outlineConnect=0;targetShapes=umlLifeline;portConstraint=eastwest;newEdgeStyle={&quot;edgeStyle&quot;:&quot;elbowEdgeStyle&quot;,&quot;elbow&quot;:&quot;vertical&quot;,&quot;curved&quot;:0,&quot;rounded&quot;:0};" vertex="1" parent="__wuMlbI5ePI79pT0euX-116">
          <mxGeometry x="45" y="130" width="10" height="100" as="geometry" />
        </mxCell>
        <mxCell id="__wuMlbI5ePI79pT0euX-162" value="" style="html=1;points=[];perimeter=orthogonalPerimeter;outlineConnect=0;targetShapes=umlLifeline;portConstraint=eastwest;newEdgeStyle={&quot;edgeStyle&quot;:&quot;elbowEdgeStyle&quot;,&quot;elbow&quot;:&quot;vertical&quot;,&quot;curved&quot;:0,&quot;rounded&quot;:0};" vertex="1" parent="__wuMlbI5ePI79pT0euX-116">
          <mxGeometry x="45" y="360" width="10" height="100" as="geometry" />
        </mxCell>
        <mxCell id="__wuMlbI5ePI79pT0euX-118" value="요청 실패" style="html=1;verticalAlign=bottom;endArrow=open;dashed=1;endSize=8;edgeStyle=elbowEdgeStyle;elbow=vertical;curved=0;rounded=0;" edge="1" parent="1" target="__wuMlbI5ePI79pT0euX-110">
          <mxGeometry x="0.0011" relative="1" as="geometry">
            <mxPoint x="-350" y="20.24000000000001" as="targetPoint" />
            <Array as="points" />
            <mxPoint x="-195" y="20.20551724137931" as="sourcePoint" />
            <mxPoint as="offset" />
          </mxGeometry>
        </mxCell>
        <mxCell id="__wuMlbI5ePI79pT0euX-119" value="요청 성공" style="html=1;verticalAlign=bottom;endArrow=open;dashed=1;endSize=8;edgeStyle=elbowEdgeStyle;elbow=vertical;curved=0;rounded=0;" edge="1" parent="1" target="__wuMlbI5ePI79pT0euX-148">
          <mxGeometry x="0.002" relative="1" as="geometry">
            <mxPoint x="-350" y="70" as="targetPoint" />
            <Array as="points" />
            <mxPoint x="-195" y="70" as="sourcePoint" />
            <mxPoint as="offset" />
          </mxGeometry>
        </mxCell>
        <mxCell id="__wuMlbI5ePI79pT0euX-120" value="" style="html=1;verticalAlign=bottom;endArrow=block;edgeStyle=elbowEdgeStyle;elbow=vertical;curved=0;rounded=0;" edge="1" parent="1" target="__wuMlbI5ePI79pT0euX-117">
          <mxGeometry x="0.0323" relative="1" as="geometry">
            <mxPoint x="-350" y="-30" as="sourcePoint" />
            <Array as="points">
              <mxPoint x="-360" y="-30" />
            </Array>
            <mxPoint x="-200" y="-30" as="targetPoint" />
            <mxPoint as="offset" />
          </mxGeometry>
        </mxCell>
        <mxCell id="__wuMlbI5ePI79pT0euX-121" value="" style="endArrow=none;dashed=1;html=1;rounded=0;" edge="1" parent="1" target="__wuMlbI5ePI79pT0euX-122">
          <mxGeometry width="50" height="50" relative="1" as="geometry">
            <mxPoint x="-540" y="320" as="sourcePoint" />
            <mxPoint x="-535.24" y="-93" as="targetPoint" />
          </mxGeometry>
        </mxCell>
        <mxCell id="__wuMlbI5ePI79pT0euX-122" value="" style="rounded=0;whiteSpace=wrap;html=1;" vertex="1" parent="1">
          <mxGeometry x="-540" y="-90" width="10" height="40" as="geometry" />
        </mxCell>
        <mxCell id="__wuMlbI5ePI79pT0euX-123" value="&lt;p style=&quot;line-height: 100%;&quot;&gt;&lt;span style=&quot;font-size: 8px;&quot;&gt;Loading... &amp;nbsp;alert(&quot;페이지를 새로고침 후 다시 시도해주세요&quot;)&lt;/span&gt;&lt;/p&gt;" style="shape=callout;whiteSpace=wrap;html=1;perimeter=calloutPerimeter;position2=0.33;direction=north;base=5;size=34;position=0.5;fillColor=#f8cecc;strokeColor=#b85450;" vertex="1" parent="1">
          <mxGeometry x="-481" y="-10" width="115" height="40" as="geometry" />
        </mxCell>
        <mxCell id="__wuMlbI5ePI79pT0euX-124" value="&lt;h1 style=&quot;font-size: 10px;&quot;&gt;&lt;font color=&quot;#ff6666&quot;&gt;&lt;span style=&quot;caret-color: rgb(255, 181, 112);&quot;&gt;페이지네이션 값 활용&lt;/span&gt;&lt;/font&gt;&lt;/h1&gt;&lt;h1 style=&quot;font-size: 10px;&quot;&gt;&lt;span style=&quot;font-weight: normal;&quot;&gt;&amp;nbsp;&quot;pageNation&quot;: {&lt;/span&gt;&lt;br&gt;&lt;/h1&gt;&lt;h1 style=&quot;font-size: 10px; line-height: 80%;&quot;&gt;&amp;nbsp; &amp;nbsp; &quot;start&quot;: 1,&lt;/h1&gt;&lt;h1 style=&quot;font-size: 10px; line-height: 80%;&quot;&gt;&amp;nbsp; &amp;nbsp; &quot;end&quot;: 1,&lt;/h1&gt;&lt;h1 style=&quot;font-size: 10px; line-height: 80%;&quot;&gt;&amp;nbsp; &amp;nbsp; &quot;total&quot;: 1,&lt;/h1&gt;&lt;h1 style=&quot;font-size: 10px; line-height: 80%;&quot;&gt;&amp;nbsp; &amp;nbsp; &quot;set&quot;: 1,&lt;/h1&gt;&lt;h1 style=&quot;font-size: 10px; line-height: 80%;&quot;&gt;&amp;nbsp; &amp;nbsp; &quot;current&quot;: 1&lt;/h1&gt;&lt;h1 style=&quot;font-size: 10px; line-height: 80%;&quot;&gt;&amp;nbsp; }&lt;/h1&gt;&lt;div style=&quot;font-size: 11px;&quot;&gt;&lt;br&gt;&lt;/div&gt;&lt;div&gt;&lt;span style=&quot;font-weight: 400;&quot;&gt;&lt;br&gt;&lt;/span&gt;&lt;/div&gt;" style="text;html=1;spacing=5;spacingTop=-20;whiteSpace=wrap;overflow=hidden;rounded=0;align=left;" vertex="1" parent="1">
          <mxGeometry x="-780" y="-17" width="190" height="127" as="geometry" />
        </mxCell>
        <mxCell id="__wuMlbI5ePI79pT0euX-142" value="PATH: baseUrl/user/" style="ellipse;shape=cloud;whiteSpace=wrap;html=1;" vertex="1" parent="1">
          <mxGeometry x="-810" y="-920" width="190" height="80" as="geometry" />
        </mxCell>
        <mxCell id="__wuMlbI5ePI79pT0euX-144" value="PATH: baseUrl/data/post/" style="ellipse;shape=cloud;whiteSpace=wrap;html=1;" vertex="1" parent="1">
          <mxGeometry x="-815" y="-200" width="220" height="80" as="geometry" />
        </mxCell>
        <mxCell id="__wuMlbI5ePI79pT0euX-159" value="&lt;font size=&quot;1&quot;&gt;postPost()&lt;/font&gt;" style="html=1;verticalAlign=bottom;endArrow=block;edgeStyle=elbowEdgeStyle;elbow=vertical;curved=0;rounded=0;" edge="1" parent="1">
          <mxGeometry x="1" y="-88" relative="1" as="geometry">
            <mxPoint x="-536" y="180" as="sourcePoint" />
            <Array as="points">
              <mxPoint x="-451" y="180" />
            </Array>
            <mxPoint x="86" y="-68" as="offset" />
            <mxPoint x="-366" y="180" as="targetPoint" />
          </mxGeometry>
        </mxCell>
        <mxCell id="__wuMlbI5ePI79pT0euX-166" value="title, content 전송" style="edgeLabel;html=1;align=center;verticalAlign=middle;resizable=0;points=[];" vertex="1" connectable="0" parent="__wuMlbI5ePI79pT0euX-159">
          <mxGeometry x="0.9014" relative="1" as="geometry">
            <mxPoint x="-65" y="-10" as="offset" />
          </mxGeometry>
        </mxCell>
        <mxCell id="__wuMlbI5ePI79pT0euX-161" value="" style="edgeStyle=elbowEdgeStyle;rounded=0;orthogonalLoop=1;jettySize=auto;html=1;elbow=vertical;curved=0;" edge="1" parent="1" source="__wuMlbI5ePI79pT0euX-160" target="__wuMlbI5ePI79pT0euX-162">
          <mxGeometry relative="1" as="geometry">
            <mxPoint x="-200" y="200" as="targetPoint" />
            <Array as="points">
              <mxPoint x="-290" y="200" />
            </Array>
          </mxGeometry>
        </mxCell>
        <mxCell id="__wuMlbI5ePI79pT0euX-163" value="요청 실패" style="html=1;verticalAlign=bottom;endArrow=open;dashed=1;endSize=8;edgeStyle=elbowEdgeStyle;elbow=vertical;curved=0;rounded=0;" edge="1" parent="1">
          <mxGeometry x="0.0011" relative="1" as="geometry">
            <mxPoint x="-360" y="250" as="targetPoint" />
            <Array as="points" />
            <mxPoint x="-195" y="250.2055172413793" as="sourcePoint" />
            <mxPoint as="offset" />
          </mxGeometry>
        </mxCell>
        <mxCell id="__wuMlbI5ePI79pT0euX-165" value="작성 성공" style="html=1;verticalAlign=bottom;endArrow=open;dashed=1;endSize=8;edgeStyle=elbowEdgeStyle;elbow=vertical;curved=0;rounded=0;" edge="1" parent="1" source="__wuMlbI5ePI79pT0euX-162">
          <mxGeometry x="0.002" relative="1" as="geometry">
            <mxPoint x="-360" y="300" as="targetPoint" />
            <Array as="points" />
            <mxPoint x="-200" y="300" as="sourcePoint" />
            <mxPoint as="offset" />
          </mxGeometry>
        </mxCell>
        <mxCell id="__wuMlbI5ePI79pT0euX-168" value="&lt;p style=&quot;line-height: 100%;&quot;&gt;&lt;span style=&quot;font-size: 8px;&quot;&gt;Loading... &amp;nbsp;alert(&quot;다시 시도해주세요&quot;)&lt;/span&gt;&lt;/p&gt;" style="shape=callout;whiteSpace=wrap;html=1;perimeter=calloutPerimeter;position2=0.33;direction=north;base=5;size=34;position=0.5;fillColor=#f8cecc;strokeColor=#b85450;" vertex="1" parent="1">
          <mxGeometry x="-481" y="220" width="115" height="40" as="geometry" />
        </mxCell>
        <mxCell id="__wuMlbI5ePI79pT0euX-169" value="&lt;span style=&quot;font-size: 8px;&quot;&gt;포스팅 추가 후 메인페이지 이동&lt;/span&gt;" style="shape=callout;whiteSpace=wrap;html=1;perimeter=calloutPerimeter;position2=0.67;direction=north;base=5;size=35;position=0.67;fillColor=#d5e8d4;strokeColor=#82b366;align=center;" vertex="1" parent="1">
          <mxGeometry x="-481" y="290" width="115" height="30" as="geometry" />
        </mxCell>
        <mxCell id="__wuMlbI5ePI79pT0euX-198" value="OnePost&lt;br&gt;(post)" style="shape=umlLifeline;perimeter=lifelinePerimeter;whiteSpace=wrap;html=1;container=0;dropTarget=0;collapsible=0;recursiveResize=0;outlineConnect=0;portConstraint=eastwest;newEdgeStyle={&quot;edgeStyle&quot;:&quot;elbowEdgeStyle&quot;,&quot;elbow&quot;:&quot;vertical&quot;,&quot;curved&quot;:0,&quot;rounded&quot;:0};" vertex="1" parent="1">
          <mxGeometry x="-410" y="420" width="100" height="690" as="geometry" />
        </mxCell>
        <mxCell id="__wuMlbI5ePI79pT0euX-199" value="" style="html=1;points=[];perimeter=orthogonalPerimeter;outlineConnect=0;targetShapes=umlLifeline;portConstraint=eastwest;newEdgeStyle={&quot;edgeStyle&quot;:&quot;elbowEdgeStyle&quot;,&quot;elbow&quot;:&quot;vertical&quot;,&quot;curved&quot;:0,&quot;rounded&quot;:0};" vertex="1" parent="__wuMlbI5ePI79pT0euX-198">
          <mxGeometry x="45" y="110" width="10" height="20" as="geometry" />
        </mxCell>
        <mxCell id="__wuMlbI5ePI79pT0euX-200" style="edgeStyle=elbowEdgeStyle;rounded=0;orthogonalLoop=1;jettySize=auto;html=1;elbow=vertical;curved=0;" edge="1" parent="__wuMlbI5ePI79pT0euX-198" source="__wuMlbI5ePI79pT0euX-202">
          <mxGeometry relative="1" as="geometry">
            <mxPoint x="-120" y="270" as="targetPoint" />
            <Array as="points">
              <mxPoint x="-40" y="270" />
            </Array>
          </mxGeometry>
        </mxCell>
        <mxCell id="__wuMlbI5ePI79pT0euX-201" value="postDetailModal 창" style="edgeLabel;html=1;align=center;verticalAlign=middle;resizable=0;points=[];" vertex="1" connectable="0" parent="__wuMlbI5ePI79pT0euX-200">
          <mxGeometry x="0.9151" y="-3" relative="1" as="geometry">
            <mxPoint x="83" y="-7" as="offset" />
          </mxGeometry>
        </mxCell>
        <mxCell id="__wuMlbI5ePI79pT0euX-202" value="" style="html=1;points=[];perimeter=orthogonalPerimeter;outlineConnect=0;targetShapes=umlLifeline;portConstraint=eastwest;newEdgeStyle={&quot;edgeStyle&quot;:&quot;elbowEdgeStyle&quot;,&quot;elbow&quot;:&quot;vertical&quot;,&quot;curved&quot;:0,&quot;rounded&quot;:0};" vertex="1" parent="__wuMlbI5ePI79pT0euX-198">
          <mxGeometry x="45" y="230" width="10" height="40" as="geometry" />
        </mxCell>
        <mxCell id="__wuMlbI5ePI79pT0euX-203" value="" style="html=1;points=[];perimeter=orthogonalPerimeter;outlineConnect=0;targetShapes=umlLifeline;portConstraint=eastwest;newEdgeStyle={&quot;edgeStyle&quot;:&quot;elbowEdgeStyle&quot;,&quot;elbow&quot;:&quot;vertical&quot;,&quot;curved&quot;:0,&quot;rounded&quot;:0};" vertex="1" parent="__wuMlbI5ePI79pT0euX-198">
          <mxGeometry x="45" y="340" width="10" height="20" as="geometry" />
        </mxCell>
        <mxCell id="__wuMlbI5ePI79pT0euX-242" value="" style="html=1;points=[];perimeter=orthogonalPerimeter;outlineConnect=0;targetShapes=umlLifeline;portConstraint=eastwest;newEdgeStyle={&quot;edgeStyle&quot;:&quot;elbowEdgeStyle&quot;,&quot;elbow&quot;:&quot;vertical&quot;,&quot;curved&quot;:0,&quot;rounded&quot;:0};" vertex="1" parent="__wuMlbI5ePI79pT0euX-198">
          <mxGeometry x="45" y="520" width="10" height="20" as="geometry" />
        </mxCell>
        <mxCell id="__wuMlbI5ePI79pT0euX-204" value="&lt;font size=&quot;1&quot;&gt;getDetailPosts()&lt;/font&gt;" style="html=1;verticalAlign=bottom;endArrow=block;edgeStyle=elbowEdgeStyle;elbow=vertical;curved=0;rounded=0;" edge="1" parent="1" target="__wuMlbI5ePI79pT0euX-199">
          <mxGeometry x="1" y="-87" relative="1" as="geometry">
            <mxPoint x="-535" y="530" as="sourcePoint" />
            <Array as="points">
              <mxPoint x="-450" y="530" />
            </Array>
            <mxPoint x="85" y="-67" as="offset" />
          </mxGeometry>
        </mxCell>
        <mxCell id="__wuMlbI5ePI79pT0euX-226" value="게시글 클릭" style="edgeLabel;html=1;align=center;verticalAlign=middle;resizable=0;points=[];" vertex="1" connectable="0" parent="__wuMlbI5ePI79pT0euX-204">
          <mxGeometry x="0.9221" y="1" relative="1" as="geometry">
            <mxPoint x="-68" y="-9" as="offset" />
          </mxGeometry>
        </mxCell>
        <mxCell id="__wuMlbI5ePI79pT0euX-205" value="Actor" style="shape=umlActor;verticalLabelPosition=bottom;verticalAlign=top;html=1;outlineConnect=0;" vertex="1" parent="1">
          <mxGeometry x="-550" y="400" width="30" height="60" as="geometry" />
        </mxCell>
        <mxCell id="__wuMlbI5ePI79pT0euX-206" value="" style="endArrow=none;dashed=1;html=1;rounded=0;" edge="1" parent="1" source="__wuMlbI5ePI79pT0euX-215">
          <mxGeometry width="50" height="50" relative="1" as="geometry">
            <mxPoint x="-535.24" y="697" as="sourcePoint" />
            <mxPoint x="-535.24" y="487" as="targetPoint" />
          </mxGeometry>
        </mxCell>
        <mxCell id="__wuMlbI5ePI79pT0euX-208" value="Server" style="shape=umlLifeline;perimeter=lifelinePerimeter;whiteSpace=wrap;html=1;container=0;dropTarget=0;collapsible=0;recursiveResize=0;outlineConnect=0;portConstraint=eastwest;newEdgeStyle={&quot;edgeStyle&quot;:&quot;elbowEdgeStyle&quot;,&quot;elbow&quot;:&quot;vertical&quot;,&quot;curved&quot;:0,&quot;rounded&quot;:0};" vertex="1" parent="1">
          <mxGeometry x="-240" y="420" width="100" height="680" as="geometry" />
        </mxCell>
        <mxCell id="__wuMlbI5ePI79pT0euX-209" value="" style="html=1;points=[];perimeter=orthogonalPerimeter;outlineConnect=0;targetShapes=umlLifeline;portConstraint=eastwest;newEdgeStyle={&quot;edgeStyle&quot;:&quot;elbowEdgeStyle&quot;,&quot;elbow&quot;:&quot;vertical&quot;,&quot;curved&quot;:0,&quot;rounded&quot;:0};" vertex="1" parent="__wuMlbI5ePI79pT0euX-208">
          <mxGeometry x="45" y="130" width="10" height="100" as="geometry" />
        </mxCell>
        <mxCell id="__wuMlbI5ePI79pT0euX-210" value="" style="html=1;points=[];perimeter=orthogonalPerimeter;outlineConnect=0;targetShapes=umlLifeline;portConstraint=eastwest;newEdgeStyle={&quot;edgeStyle&quot;:&quot;elbowEdgeStyle&quot;,&quot;elbow&quot;:&quot;vertical&quot;,&quot;curved&quot;:0,&quot;rounded&quot;:0};" vertex="1" parent="__wuMlbI5ePI79pT0euX-208">
          <mxGeometry x="45" y="360" width="10" height="100" as="geometry" />
        </mxCell>
        <mxCell id="__wuMlbI5ePI79pT0euX-246" value="" style="html=1;points=[];perimeter=orthogonalPerimeter;outlineConnect=0;targetShapes=umlLifeline;portConstraint=eastwest;newEdgeStyle={&quot;edgeStyle&quot;:&quot;elbowEdgeStyle&quot;,&quot;elbow&quot;:&quot;vertical&quot;,&quot;curved&quot;:0,&quot;rounded&quot;:0};" vertex="1" parent="__wuMlbI5ePI79pT0euX-208">
          <mxGeometry x="45" y="540" width="10" height="100" as="geometry" />
        </mxCell>
        <mxCell id="__wuMlbI5ePI79pT0euX-211" value="요청 실패" style="html=1;verticalAlign=bottom;endArrow=open;dashed=1;endSize=8;edgeStyle=elbowEdgeStyle;elbow=vertical;curved=0;rounded=0;" edge="1" parent="1" target="__wuMlbI5ePI79pT0euX-198">
          <mxGeometry x="0.0011" relative="1" as="geometry">
            <mxPoint x="-350" y="600.24" as="targetPoint" />
            <Array as="points" />
            <mxPoint x="-195" y="600.2055172413793" as="sourcePoint" />
            <mxPoint as="offset" />
          </mxGeometry>
        </mxCell>
        <mxCell id="__wuMlbI5ePI79pT0euX-212" value="요청 성공" style="html=1;verticalAlign=bottom;endArrow=open;dashed=1;endSize=8;edgeStyle=elbowEdgeStyle;elbow=vertical;curved=0;rounded=0;" edge="1" parent="1" target="__wuMlbI5ePI79pT0euX-202">
          <mxGeometry x="0.002" relative="1" as="geometry">
            <mxPoint x="-350" y="650" as="targetPoint" />
            <Array as="points" />
            <mxPoint x="-195" y="650" as="sourcePoint" />
            <mxPoint as="offset" />
          </mxGeometry>
        </mxCell>
        <mxCell id="__wuMlbI5ePI79pT0euX-213" value="" style="html=1;verticalAlign=bottom;endArrow=block;edgeStyle=elbowEdgeStyle;elbow=vertical;curved=0;rounded=0;" edge="1" parent="1" target="__wuMlbI5ePI79pT0euX-209">
          <mxGeometry x="0.0323" relative="1" as="geometry">
            <mxPoint x="-350" y="550" as="sourcePoint" />
            <Array as="points">
              <mxPoint x="-360" y="550" />
            </Array>
            <mxPoint x="-200" y="550" as="targetPoint" />
            <mxPoint as="offset" />
          </mxGeometry>
        </mxCell>
        <mxCell id="__wuMlbI5ePI79pT0euX-214" value="" style="endArrow=none;dashed=1;html=1;rounded=0;" edge="1" parent="1" target="__wuMlbI5ePI79pT0euX-215">
          <mxGeometry width="50" height="50" relative="1" as="geometry">
            <mxPoint x="-535" y="1100" as="sourcePoint" />
            <mxPoint x="-535.24" y="487" as="targetPoint" />
          </mxGeometry>
        </mxCell>
        <mxCell id="__wuMlbI5ePI79pT0euX-215" value="" style="rounded=0;whiteSpace=wrap;html=1;" vertex="1" parent="1">
          <mxGeometry x="-540" y="490" width="10" height="40" as="geometry" />
        </mxCell>
        <mxCell id="__wuMlbI5ePI79pT0euX-216" value="&lt;p style=&quot;line-height: 100%;&quot;&gt;&lt;span style=&quot;font-size: 8px;&quot;&gt;Loading... &amp;nbsp;&lt;/span&gt;&lt;span style=&quot;font-size: 8px;&quot;&gt;alert(&quot;페이지를 새로고침 후 다시 시도해주세요&quot;)&lt;/span&gt;&lt;/p&gt;" style="shape=callout;whiteSpace=wrap;html=1;perimeter=calloutPerimeter;position2=0.33;direction=north;base=5;size=34;position=0.5;fillColor=#f8cecc;strokeColor=#b85450;" vertex="1" parent="1">
          <mxGeometry x="-481" y="570" width="115" height="40" as="geometry" />
        </mxCell>
        <mxCell id="__wuMlbI5ePI79pT0euX-219" value="&lt;font size=&quot;1&quot;&gt;patchPost()&lt;/font&gt;" style="html=1;verticalAlign=bottom;endArrow=block;edgeStyle=elbowEdgeStyle;elbow=vertical;curved=0;rounded=0;" edge="1" parent="1">
          <mxGeometry x="1" y="-89" relative="1" as="geometry">
            <mxPoint x="-536" y="760" as="sourcePoint" />
            <Array as="points">
              <mxPoint x="-451" y="760" />
            </Array>
            <mxPoint x="86" y="-69" as="offset" />
            <mxPoint x="-366" y="760" as="targetPoint" />
          </mxGeometry>
        </mxCell>
        <mxCell id="__wuMlbI5ePI79pT0euX-220" value="EDIT click!" style="edgeLabel;html=1;align=center;verticalAlign=middle;resizable=0;points=[];" vertex="1" connectable="0" parent="__wuMlbI5ePI79pT0euX-219">
          <mxGeometry x="0.9014" relative="1" as="geometry">
            <mxPoint x="-75" y="-10" as="offset" />
          </mxGeometry>
        </mxCell>
        <mxCell id="__wuMlbI5ePI79pT0euX-221" value="" style="edgeStyle=elbowEdgeStyle;rounded=0;orthogonalLoop=1;jettySize=auto;html=1;elbow=vertical;curved=0;" edge="1" parent="1" source="__wuMlbI5ePI79pT0euX-203" target="__wuMlbI5ePI79pT0euX-210">
          <mxGeometry relative="1" as="geometry">
            <mxPoint x="-200" y="780" as="targetPoint" />
            <Array as="points">
              <mxPoint x="-290" y="780" />
            </Array>
          </mxGeometry>
        </mxCell>
        <mxCell id="__wuMlbI5ePI79pT0euX-222" value="요청 실패" style="html=1;verticalAlign=bottom;endArrow=open;dashed=1;endSize=8;edgeStyle=elbowEdgeStyle;elbow=vertical;curved=0;rounded=0;" edge="1" parent="1">
          <mxGeometry x="0.0011" relative="1" as="geometry">
            <mxPoint x="-360" y="830" as="targetPoint" />
            <Array as="points" />
            <mxPoint x="-195" y="830.2055172413793" as="sourcePoint" />
            <mxPoint as="offset" />
          </mxGeometry>
        </mxCell>
        <mxCell id="__wuMlbI5ePI79pT0euX-223" value="작성 성공" style="html=1;verticalAlign=bottom;endArrow=open;dashed=1;endSize=8;edgeStyle=elbowEdgeStyle;elbow=vertical;curved=0;rounded=0;" edge="1" parent="1" source="__wuMlbI5ePI79pT0euX-210">
          <mxGeometry x="0.0022" relative="1" as="geometry">
            <mxPoint x="-360" y="880" as="targetPoint" />
            <Array as="points" />
            <mxPoint x="-200" y="880" as="sourcePoint" />
            <mxPoint as="offset" />
          </mxGeometry>
        </mxCell>
        <mxCell id="__wuMlbI5ePI79pT0euX-224" value="&lt;p style=&quot;line-height: 100%;&quot;&gt;&lt;span style=&quot;font-size: 8px;&quot;&gt;Loading... &amp;nbsp;alert(&quot;다시 시도해주세요&quot;)&lt;/span&gt;&lt;/p&gt;" style="shape=callout;whiteSpace=wrap;html=1;perimeter=calloutPerimeter;position2=0.33;direction=north;base=5;size=34;position=0.5;fillColor=#f8cecc;strokeColor=#b85450;" vertex="1" parent="1">
          <mxGeometry x="-481" y="810" width="115" height="30" as="geometry" />
        </mxCell>
        <mxCell id="__wuMlbI5ePI79pT0euX-225" value="&lt;span style=&quot;font-size: 8px;&quot;&gt;포스팅 추가 후 메인페이지 이동(postList에 새로운 포스트 추가됨)&lt;/span&gt;" style="shape=callout;whiteSpace=wrap;html=1;perimeter=calloutPerimeter;position2=0.5;direction=north;base=5;size=34;position=0.5;fillColor=#d5e8d4;strokeColor=#82b366;align=center;" vertex="1" parent="1">
          <mxGeometry x="-481" y="860" width="115" height="40" as="geometry" />
        </mxCell>
        <mxCell id="__wuMlbI5ePI79pT0euX-230" value="&lt;font style=&quot;font-size: 8px;&quot;&gt;params: { dataId }&lt;/font&gt;" style="text;html=1;align=center;verticalAlign=middle;whiteSpace=wrap;rounded=0;fillColor=#fff2cc;strokeColor=#d6b656;" vertex="1" parent="1">
          <mxGeometry x="-310" y="515" width="70" height="15" as="geometry" />
        </mxCell>
        <mxCell id="__wuMlbI5ePI79pT0euX-235" value="&lt;font style=&quot;font-size: 8px;&quot;&gt;params: { dataId }&lt;/font&gt;" style="text;html=1;align=center;verticalAlign=middle;whiteSpace=wrap;rounded=0;fillColor=#fff2cc;strokeColor=#d6b656;" vertex="1" parent="1">
          <mxGeometry x="-310" y="750" width="70" height="15" as="geometry" />
        </mxCell>
        <mxCell id="__wuMlbI5ePI79pT0euX-243" value="" style="html=1;verticalAlign=bottom;endArrow=block;edgeStyle=elbowEdgeStyle;elbow=vertical;curved=0;rounded=0;" edge="1" parent="1">
          <mxGeometry x="1" y="-89" relative="1" as="geometry">
            <mxPoint x="-536" y="940" as="sourcePoint" />
            <Array as="points">
              <mxPoint x="-451" y="940" />
            </Array>
            <mxPoint x="86" y="-69" as="offset" />
            <mxPoint x="-366" y="940" as="targetPoint" />
          </mxGeometry>
        </mxCell>
        <mxCell id="__wuMlbI5ePI79pT0euX-244" value="DELETE click!" style="edgeLabel;html=1;align=center;verticalAlign=middle;resizable=0;points=[];" vertex="1" connectable="0" parent="__wuMlbI5ePI79pT0euX-243">
          <mxGeometry x="0.9014" relative="1" as="geometry">
            <mxPoint x="-75" y="-10" as="offset" />
          </mxGeometry>
        </mxCell>
        <mxCell id="__wuMlbI5ePI79pT0euX-245" value="" style="edgeStyle=elbowEdgeStyle;rounded=0;orthogonalLoop=1;jettySize=auto;html=1;elbow=vertical;curved=0;" edge="1" parent="1">
          <mxGeometry relative="1" as="geometry">
            <mxPoint x="-195" y="960" as="targetPoint" />
            <Array as="points">
              <mxPoint x="-290" y="960" />
            </Array>
            <mxPoint x="-355" y="960" as="sourcePoint" />
          </mxGeometry>
        </mxCell>
        <mxCell id="__wuMlbI5ePI79pT0euX-248" value="deletePost()" style="edgeLabel;html=1;align=center;verticalAlign=middle;resizable=0;points=[];" vertex="1" connectable="0" parent="__wuMlbI5ePI79pT0euX-245">
          <mxGeometry x="0.9232" relative="1" as="geometry">
            <mxPoint x="-74" y="-10" as="offset" />
          </mxGeometry>
        </mxCell>
        <mxCell id="__wuMlbI5ePI79pT0euX-247" value="&lt;font style=&quot;font-size: 8px;&quot;&gt;params: { dataId }&lt;/font&gt;" style="text;html=1;align=center;verticalAlign=middle;whiteSpace=wrap;rounded=0;fillColor=#fff2cc;strokeColor=#d6b656;" vertex="1" parent="1">
          <mxGeometry x="-310" y="930" width="70" height="15" as="geometry" />
        </mxCell>
        <mxCell id="__wuMlbI5ePI79pT0euX-249" value="요청 실패" style="html=1;verticalAlign=bottom;endArrow=open;dashed=1;endSize=8;edgeStyle=elbowEdgeStyle;elbow=vertical;curved=0;rounded=0;" edge="1" parent="1" source="__wuMlbI5ePI79pT0euX-246">
          <mxGeometry x="0.0011" relative="1" as="geometry">
            <mxPoint x="-357.5" y="1010" as="targetPoint" />
            <Array as="points" />
            <mxPoint x="-192.5" y="1010.2055172413793" as="sourcePoint" />
            <mxPoint as="offset" />
          </mxGeometry>
        </mxCell>
        <mxCell id="__wuMlbI5ePI79pT0euX-250" value="삭제 성공" style="html=1;verticalAlign=bottom;endArrow=open;dashed=1;endSize=8;edgeStyle=elbowEdgeStyle;elbow=vertical;curved=0;rounded=0;" edge="1" parent="1">
          <mxGeometry x="0.0022" relative="1" as="geometry">
            <mxPoint x="-360" y="1060" as="targetPoint" />
            <Array as="points" />
            <mxPoint x="-190" y="1060" as="sourcePoint" />
            <mxPoint as="offset" />
          </mxGeometry>
        </mxCell>
        <mxCell id="__wuMlbI5ePI79pT0euX-251" value="&lt;p style=&quot;line-height: 100%;&quot;&gt;&lt;span style=&quot;font-size: 8px;&quot;&gt;Loading... &amp;nbsp;alert(&quot;다시 시도해주세요&quot;)&lt;/span&gt;&lt;/p&gt;" style="shape=callout;whiteSpace=wrap;html=1;perimeter=calloutPerimeter;position2=0.33;direction=north;base=5;size=34;position=0.5;fillColor=#f8cecc;strokeColor=#b85450;" vertex="1" parent="1">
          <mxGeometry x="-481" y="990" width="115" height="30" as="geometry" />
        </mxCell>
        <mxCell id="__wuMlbI5ePI79pT0euX-252" value="&lt;span style=&quot;font-size: 8px;&quot;&gt;게시글 삭제(postList에서 해당게시글 삭제)&lt;/span&gt;" style="shape=callout;whiteSpace=wrap;html=1;perimeter=calloutPerimeter;position2=0.33;direction=north;base=5;size=34;position=0.5;fillColor=#d5e8d4;strokeColor=#82b366;align=center;" vertex="1" parent="1">
          <mxGeometry x="-481" y="1040" width="115" height="30" as="geometry" />
        </mxCell>
        <mxCell id="__wuMlbI5ePI79pT0euX-253" value="postDetailModal&lt;br&gt;(comment)" style="shape=umlLifeline;perimeter=lifelinePerimeter;whiteSpace=wrap;html=1;container=0;dropTarget=0;collapsible=0;recursiveResize=0;outlineConnect=0;portConstraint=eastwest;newEdgeStyle={&quot;edgeStyle&quot;:&quot;elbowEdgeStyle&quot;,&quot;elbow&quot;:&quot;vertical&quot;,&quot;curved&quot;:0,&quot;rounded&quot;:0};" vertex="1" parent="1">
          <mxGeometry x="-410" y="1170" width="100" height="520" as="geometry" />
        </mxCell>
        <mxCell id="__wuMlbI5ePI79pT0euX-254" value="" style="html=1;points=[];perimeter=orthogonalPerimeter;outlineConnect=0;targetShapes=umlLifeline;portConstraint=eastwest;newEdgeStyle={&quot;edgeStyle&quot;:&quot;elbowEdgeStyle&quot;,&quot;elbow&quot;:&quot;vertical&quot;,&quot;curved&quot;:0,&quot;rounded&quot;:0};" vertex="1" parent="__wuMlbI5ePI79pT0euX-253">
          <mxGeometry x="45" y="110" width="10" height="20" as="geometry" />
        </mxCell>
        <mxCell id="__wuMlbI5ePI79pT0euX-255" style="edgeStyle=elbowEdgeStyle;rounded=0;orthogonalLoop=1;jettySize=auto;html=1;elbow=vertical;curved=0;" edge="1" parent="__wuMlbI5ePI79pT0euX-253" source="__wuMlbI5ePI79pT0euX-257">
          <mxGeometry relative="1" as="geometry">
            <mxPoint x="-120" y="270" as="targetPoint" />
            <Array as="points">
              <mxPoint x="-40" y="270" />
            </Array>
          </mxGeometry>
        </mxCell>
        <mxCell id="__wuMlbI5ePI79pT0euX-256" value="해당 게시글의 댓글List" style="edgeLabel;html=1;align=center;verticalAlign=middle;resizable=0;points=[];" vertex="1" connectable="0" parent="__wuMlbI5ePI79pT0euX-255">
          <mxGeometry x="0.9151" y="-3" relative="1" as="geometry">
            <mxPoint x="83" y="-7" as="offset" />
          </mxGeometry>
        </mxCell>
        <mxCell id="__wuMlbI5ePI79pT0euX-257" value="" style="html=1;points=[];perimeter=orthogonalPerimeter;outlineConnect=0;targetShapes=umlLifeline;portConstraint=eastwest;newEdgeStyle={&quot;edgeStyle&quot;:&quot;elbowEdgeStyle&quot;,&quot;elbow&quot;:&quot;vertical&quot;,&quot;curved&quot;:0,&quot;rounded&quot;:0};" vertex="1" parent="__wuMlbI5ePI79pT0euX-253">
          <mxGeometry x="45" y="230" width="10" height="40" as="geometry" />
        </mxCell>
        <mxCell id="__wuMlbI5ePI79pT0euX-258" value="" style="html=1;points=[];perimeter=orthogonalPerimeter;outlineConnect=0;targetShapes=umlLifeline;portConstraint=eastwest;newEdgeStyle={&quot;edgeStyle&quot;:&quot;elbowEdgeStyle&quot;,&quot;elbow&quot;:&quot;vertical&quot;,&quot;curved&quot;:0,&quot;rounded&quot;:0};" vertex="1" parent="__wuMlbI5ePI79pT0euX-253">
          <mxGeometry x="45" y="340" width="10" height="20" as="geometry" />
        </mxCell>
        <mxCell id="__wuMlbI5ePI79pT0euX-260" value="&lt;font size=&quot;1&quot;&gt;getComment()&lt;/font&gt;" style="html=1;verticalAlign=bottom;endArrow=block;edgeStyle=elbowEdgeStyle;elbow=vertical;curved=0;rounded=0;" edge="1" parent="1" target="__wuMlbI5ePI79pT0euX-254">
          <mxGeometry x="1" y="-87" relative="1" as="geometry">
            <mxPoint x="-535" y="1280" as="sourcePoint" />
            <Array as="points">
              <mxPoint x="-450" y="1280" />
            </Array>
            <mxPoint x="85" y="-67" as="offset" />
          </mxGeometry>
        </mxCell>
        <mxCell id="__wuMlbI5ePI79pT0euX-261" value="게시글 클릭" style="edgeLabel;html=1;align=center;verticalAlign=middle;resizable=0;points=[];" vertex="1" connectable="0" parent="__wuMlbI5ePI79pT0euX-260">
          <mxGeometry x="0.9221" y="1" relative="1" as="geometry">
            <mxPoint x="-68" y="-9" as="offset" />
          </mxGeometry>
        </mxCell>
        <mxCell id="__wuMlbI5ePI79pT0euX-262" value="Actor" style="shape=umlActor;verticalLabelPosition=bottom;verticalAlign=top;html=1;outlineConnect=0;" vertex="1" parent="1">
          <mxGeometry x="-550" y="1150" width="30" height="60" as="geometry" />
        </mxCell>
        <mxCell id="__wuMlbI5ePI79pT0euX-263" value="" style="endArrow=none;dashed=1;html=1;rounded=0;" edge="1" parent="1" source="__wuMlbI5ePI79pT0euX-272">
          <mxGeometry width="50" height="50" relative="1" as="geometry">
            <mxPoint x="-535.24" y="1447" as="sourcePoint" />
            <mxPoint x="-535.24" y="1237" as="targetPoint" />
          </mxGeometry>
        </mxCell>
        <mxCell id="__wuMlbI5ePI79pT0euX-264" value="Server" style="shape=umlLifeline;perimeter=lifelinePerimeter;whiteSpace=wrap;html=1;container=0;dropTarget=0;collapsible=0;recursiveResize=0;outlineConnect=0;portConstraint=eastwest;newEdgeStyle={&quot;edgeStyle&quot;:&quot;elbowEdgeStyle&quot;,&quot;elbow&quot;:&quot;vertical&quot;,&quot;curved&quot;:0,&quot;rounded&quot;:0};" vertex="1" parent="1">
          <mxGeometry x="-240" y="1170" width="100" height="520" as="geometry" />
        </mxCell>
        <mxCell id="__wuMlbI5ePI79pT0euX-265" value="" style="html=1;points=[];perimeter=orthogonalPerimeter;outlineConnect=0;targetShapes=umlLifeline;portConstraint=eastwest;newEdgeStyle={&quot;edgeStyle&quot;:&quot;elbowEdgeStyle&quot;,&quot;elbow&quot;:&quot;vertical&quot;,&quot;curved&quot;:0,&quot;rounded&quot;:0};" vertex="1" parent="__wuMlbI5ePI79pT0euX-264">
          <mxGeometry x="45" y="130" width="10" height="100" as="geometry" />
        </mxCell>
        <mxCell id="__wuMlbI5ePI79pT0euX-266" value="" style="html=1;points=[];perimeter=orthogonalPerimeter;outlineConnect=0;targetShapes=umlLifeline;portConstraint=eastwest;newEdgeStyle={&quot;edgeStyle&quot;:&quot;elbowEdgeStyle&quot;,&quot;elbow&quot;:&quot;vertical&quot;,&quot;curved&quot;:0,&quot;rounded&quot;:0};" vertex="1" parent="__wuMlbI5ePI79pT0euX-264">
          <mxGeometry x="45" y="360" width="10" height="100" as="geometry" />
        </mxCell>
        <mxCell id="__wuMlbI5ePI79pT0euX-268" value="요청 실패" style="html=1;verticalAlign=bottom;endArrow=open;dashed=1;endSize=8;edgeStyle=elbowEdgeStyle;elbow=vertical;curved=0;rounded=0;" edge="1" parent="1" target="__wuMlbI5ePI79pT0euX-253">
          <mxGeometry x="0.0011" relative="1" as="geometry">
            <mxPoint x="-350" y="1350.24" as="targetPoint" />
            <Array as="points" />
            <mxPoint x="-195" y="1350.2055172413793" as="sourcePoint" />
            <mxPoint as="offset" />
          </mxGeometry>
        </mxCell>
        <mxCell id="__wuMlbI5ePI79pT0euX-269" value="요청 성공" style="html=1;verticalAlign=bottom;endArrow=open;dashed=1;endSize=8;edgeStyle=elbowEdgeStyle;elbow=vertical;curved=0;rounded=0;" edge="1" parent="1" target="__wuMlbI5ePI79pT0euX-257">
          <mxGeometry x="0.002" relative="1" as="geometry">
            <mxPoint x="-350" y="1400" as="targetPoint" />
            <Array as="points" />
            <mxPoint x="-195" y="1400" as="sourcePoint" />
            <mxPoint as="offset" />
          </mxGeometry>
        </mxCell>
        <mxCell id="__wuMlbI5ePI79pT0euX-270" value="" style="html=1;verticalAlign=bottom;endArrow=block;edgeStyle=elbowEdgeStyle;elbow=vertical;curved=0;rounded=0;" edge="1" parent="1" target="__wuMlbI5ePI79pT0euX-265">
          <mxGeometry x="0.0323" relative="1" as="geometry">
            <mxPoint x="-350" y="1300" as="sourcePoint" />
            <Array as="points">
              <mxPoint x="-360" y="1300" />
            </Array>
            <mxPoint x="-200" y="1300" as="targetPoint" />
            <mxPoint as="offset" />
          </mxGeometry>
        </mxCell>
        <mxCell id="__wuMlbI5ePI79pT0euX-271" value="" style="endArrow=none;dashed=1;html=1;rounded=0;" edge="1" parent="1" target="__wuMlbI5ePI79pT0euX-272">
          <mxGeometry width="50" height="50" relative="1" as="geometry">
            <mxPoint x="-535" y="1690" as="sourcePoint" />
            <mxPoint x="-535.24" y="1237" as="targetPoint" />
          </mxGeometry>
        </mxCell>
        <mxCell id="__wuMlbI5ePI79pT0euX-272" value="" style="rounded=0;whiteSpace=wrap;html=1;" vertex="1" parent="1">
          <mxGeometry x="-540" y="1240" width="10" height="40" as="geometry" />
        </mxCell>
        <mxCell id="__wuMlbI5ePI79pT0euX-273" value="&lt;p style=&quot;line-height: 100%;&quot;&gt;&lt;span style=&quot;font-size: 8px;&quot;&gt;Loading... &amp;nbsp;alert(&quot;페이지를 새로고침 후 다시 시도해주세요&quot;)&lt;/span&gt;&lt;/p&gt;" style="shape=callout;whiteSpace=wrap;html=1;perimeter=calloutPerimeter;position2=0.33;direction=north;base=5;size=34;position=0.5;fillColor=#f8cecc;strokeColor=#b85450;" vertex="1" parent="1">
          <mxGeometry x="-481" y="1320" width="115" height="40" as="geometry" />
        </mxCell>
        <mxCell id="__wuMlbI5ePI79pT0euX-274" value="&lt;h1 style=&quot;font-size: 10px;&quot;&gt;&lt;font color=&quot;#ff6666&quot;&gt;&lt;span style=&quot;caret-color: rgb(255, 181, 112);&quot;&gt;post + comment&lt;/span&gt;&lt;/font&gt;&lt;/h1&gt;&lt;h1 style=&quot;font-size: 10px;&quot;&gt;&lt;span style=&quot;font-weight: 400;&quot;&gt;childeren : {&lt;/span&gt;&lt;/h1&gt;&lt;h1 style=&quot;font-size: 10px;&quot;&gt;&lt;span style=&quot;font-weight: 400;&quot;&gt;&lt;span style=&quot;white-space: pre;&quot;&gt;&#x9;commentData&lt;/span&gt;&lt;br&gt;&lt;/span&gt;&lt;/h1&gt;&lt;h1 style=&quot;font-size: 10px;&quot;&gt;&lt;span style=&quot;font-weight: 400;&quot;&gt;}&lt;/span&gt;&lt;/h1&gt;&lt;div style=&quot;font-size: 11px;&quot;&gt;&lt;br&gt;&lt;/div&gt;&lt;div&gt;&lt;span style=&quot;font-weight: 400;&quot;&gt;&lt;br&gt;&lt;/span&gt;&lt;/div&gt;" style="text;html=1;spacing=5;spacingTop=-20;whiteSpace=wrap;overflow=hidden;rounded=0;align=left;" vertex="1" parent="1">
          <mxGeometry x="-780" y="560" width="190" height="127" as="geometry" />
        </mxCell>
        <mxCell id="__wuMlbI5ePI79pT0euX-275" value="PATH: baseUrl/data/comment?" style="ellipse;shape=cloud;whiteSpace=wrap;html=1;" vertex="1" parent="1">
          <mxGeometry x="-830" y="1130" width="220" height="80" as="geometry" />
        </mxCell>
        <mxCell id="__wuMlbI5ePI79pT0euX-276" value="&lt;font size=&quot;1&quot;&gt;postComment()&lt;/font&gt;" style="html=1;verticalAlign=bottom;endArrow=block;edgeStyle=elbowEdgeStyle;elbow=vertical;curved=0;rounded=0;" edge="1" parent="1">
          <mxGeometry x="1" y="-89" relative="1" as="geometry">
            <mxPoint x="-536" y="1510" as="sourcePoint" />
            <Array as="points">
              <mxPoint x="-451" y="1510" />
            </Array>
            <mxPoint x="86" y="-69" as="offset" />
            <mxPoint x="-366" y="1510" as="targetPoint" />
          </mxGeometry>
        </mxCell>
        <mxCell id="__wuMlbI5ePI79pT0euX-277" value="댓글 submit!" style="edgeLabel;html=1;align=center;verticalAlign=middle;resizable=0;points=[];" vertex="1" connectable="0" parent="__wuMlbI5ePI79pT0euX-276">
          <mxGeometry x="0.9014" relative="1" as="geometry">
            <mxPoint x="-75" y="-10" as="offset" />
          </mxGeometry>
        </mxCell>
        <mxCell id="__wuMlbI5ePI79pT0euX-278" value="" style="edgeStyle=elbowEdgeStyle;rounded=0;orthogonalLoop=1;jettySize=auto;html=1;elbow=vertical;curved=0;" edge="1" parent="1" source="__wuMlbI5ePI79pT0euX-258" target="__wuMlbI5ePI79pT0euX-266">
          <mxGeometry relative="1" as="geometry">
            <mxPoint x="-200" y="1530" as="targetPoint" />
            <Array as="points">
              <mxPoint x="-290" y="1530" />
            </Array>
          </mxGeometry>
        </mxCell>
        <mxCell id="__wuMlbI5ePI79pT0euX-279" value="요청 실패" style="html=1;verticalAlign=bottom;endArrow=open;dashed=1;endSize=8;edgeStyle=elbowEdgeStyle;elbow=vertical;curved=0;rounded=0;" edge="1" parent="1">
          <mxGeometry x="0.0011" relative="1" as="geometry">
            <mxPoint x="-360" y="1580" as="targetPoint" />
            <Array as="points" />
            <mxPoint x="-195" y="1580.2055172413793" as="sourcePoint" />
            <mxPoint as="offset" />
          </mxGeometry>
        </mxCell>
        <mxCell id="__wuMlbI5ePI79pT0euX-280" value="작성 성공" style="html=1;verticalAlign=bottom;endArrow=open;dashed=1;endSize=8;edgeStyle=elbowEdgeStyle;elbow=vertical;curved=0;rounded=0;" edge="1" parent="1" source="__wuMlbI5ePI79pT0euX-266">
          <mxGeometry x="0.0022" relative="1" as="geometry">
            <mxPoint x="-360" y="1630" as="targetPoint" />
            <Array as="points" />
            <mxPoint x="-200" y="1630" as="sourcePoint" />
            <mxPoint as="offset" />
          </mxGeometry>
        </mxCell>
        <mxCell id="__wuMlbI5ePI79pT0euX-281" value="&lt;p style=&quot;line-height: 100%;&quot;&gt;&lt;span style=&quot;font-size: 8px;&quot;&gt;Loading... &amp;nbsp;alert(&quot;다시 시도해주세요&quot;)&lt;/span&gt;&lt;/p&gt;" style="shape=callout;whiteSpace=wrap;html=1;perimeter=calloutPerimeter;position2=0.33;direction=north;base=5;size=34;position=0.5;fillColor=#f8cecc;strokeColor=#b85450;" vertex="1" parent="1">
          <mxGeometry x="-481" y="1560" width="115" height="30" as="geometry" />
        </mxCell>
        <mxCell id="__wuMlbI5ePI79pT0euX-282" value="&lt;span style=&quot;font-size: 8px;&quot;&gt;commnet-list 하단에 추가됨&lt;/span&gt;" style="shape=callout;whiteSpace=wrap;html=1;perimeter=calloutPerimeter;position2=0.5;direction=north;base=5;size=34;position=0.5;fillColor=#d5e8d4;strokeColor=#82b366;align=center;" vertex="1" parent="1">
          <mxGeometry x="-481" y="1610" width="115" height="40" as="geometry" />
        </mxCell>
        <mxCell id="__wuMlbI5ePI79pT0euX-283" value="&lt;font style=&quot;font-size: 8px;&quot;&gt;params: { dataId }&lt;/font&gt;" style="text;html=1;align=center;verticalAlign=middle;whiteSpace=wrap;rounded=0;fillColor=#fff2cc;strokeColor=#d6b656;" vertex="1" parent="1">
          <mxGeometry x="-310" y="1265" width="70" height="15" as="geometry" />
        </mxCell>
        <mxCell id="__wuMlbI5ePI79pT0euX-284" value="&lt;font style=&quot;font-size: 8px;&quot;&gt;params: { dataId }&lt;/font&gt;" style="text;html=1;align=center;verticalAlign=middle;whiteSpace=wrap;rounded=0;fillColor=#fff2cc;strokeColor=#d6b656;" vertex="1" parent="1">
          <mxGeometry x="-310" y="1500" width="70" height="15" as="geometry" />
        </mxCell>
        <mxCell id="__wuMlbI5ePI79pT0euX-294" value="PATH: baseUrl/data/detail/post/" style="ellipse;shape=cloud;whiteSpace=wrap;html=1;" vertex="1" parent="1">
          <mxGeometry x="-830" y="450" width="250" height="80" as="geometry" />
        </mxCell>
        <mxCell id="__wuMlbI5ePI79pT0euX-295" value="PATH: baseUrl/data/post/" style="ellipse;shape=cloud;whiteSpace=wrap;html=1;" vertex="1" parent="1">
          <mxGeometry x="-815" y="720" width="220" height="80" as="geometry" />
        </mxCell>
        <mxCell id="__wuMlbI5ePI79pT0euX-299" value="&lt;h1 style=&quot;font-size: 10px;&quot;&gt;&lt;font color=&quot;#ff6666&quot;&gt;&lt;span style=&quot;caret-color: rgb(255, 181, 112);&quot;&gt;Comment Submit버튼 중복 클릭&lt;/span&gt;&lt;/font&gt;&lt;/h1&gt;&lt;h1 style=&quot;font-size: 10px;&quot;&gt;&lt;span style=&quot;font-weight: 400;&quot;&gt;버튼을 여러 번 클릭 시, 예기치 않은 동작으로 인해&amp;nbsp;&lt;/span&gt;&lt;/h1&gt;&lt;h1 style=&quot;font-size: 10px;&quot;&gt;&lt;span style=&quot;font-weight: 400;&quot;&gt;사용자가 불편함을 경험할 수 있음&lt;/span&gt;&lt;/h1&gt;&lt;div&gt;1) setTimeOut 설정하여 제출미룸&lt;/div&gt;&lt;div&gt;2) 작성 후 바로 button disabled시키기&lt;/div&gt;" style="text;html=1;spacing=5;spacingTop=-20;whiteSpace=wrap;overflow=hidden;rounded=0;align=left;" vertex="1" parent="1">
          <mxGeometry x="-780" y="1530" width="240" height="100" as="geometry" />
        </mxCell>
        <mxCell id="__wuMlbI5ePI79pT0euX-314" value="My Dialog" style="shape=umlLifeline;perimeter=lifelinePerimeter;whiteSpace=wrap;html=1;container=0;dropTarget=0;collapsible=0;recursiveResize=0;outlineConnect=0;portConstraint=eastwest;newEdgeStyle={&quot;edgeStyle&quot;:&quot;elbowEdgeStyle&quot;,&quot;elbow&quot;:&quot;vertical&quot;,&quot;curved&quot;:0,&quot;rounded&quot;:0};" vertex="1" parent="1">
          <mxGeometry x="-410" y="1760" width="100" height="290" as="geometry" />
        </mxCell>
        <mxCell id="__wuMlbI5ePI79pT0euX-315" value="" style="html=1;points=[];perimeter=orthogonalPerimeter;outlineConnect=0;targetShapes=umlLifeline;portConstraint=eastwest;newEdgeStyle={&quot;edgeStyle&quot;:&quot;elbowEdgeStyle&quot;,&quot;elbow&quot;:&quot;vertical&quot;,&quot;curved&quot;:0,&quot;rounded&quot;:0};" vertex="1" parent="__wuMlbI5ePI79pT0euX-314">
          <mxGeometry x="45" y="110" width="10" height="20" as="geometry" />
        </mxCell>
        <mxCell id="__wuMlbI5ePI79pT0euX-316" value="&lt;font size=&quot;1&quot;&gt;로그아웃 버튼 click&lt;/font&gt;" style="html=1;verticalAlign=bottom;endArrow=block;edgeStyle=elbowEdgeStyle;elbow=vertical;curved=0;rounded=0;" edge="1" parent="1" target="__wuMlbI5ePI79pT0euX-315">
          <mxGeometry x="-0.002" relative="1" as="geometry">
            <mxPoint x="-535" y="1870" as="sourcePoint" />
            <Array as="points">
              <mxPoint x="-450" y="1870" />
            </Array>
            <mxPoint as="offset" />
          </mxGeometry>
        </mxCell>
        <mxCell id="__wuMlbI5ePI79pT0euX-317" value="Actor" style="shape=umlActor;verticalLabelPosition=bottom;verticalAlign=top;html=1;outlineConnect=0;" vertex="1" parent="1">
          <mxGeometry x="-550" y="1740" width="30" height="60" as="geometry" />
        </mxCell>
        <mxCell id="__wuMlbI5ePI79pT0euX-318" value="" style="endArrow=none;dashed=1;html=1;rounded=0;" edge="1" parent="1" source="__wuMlbI5ePI79pT0euX-327">
          <mxGeometry width="50" height="50" relative="1" as="geometry">
            <mxPoint x="-535.24" y="2037" as="sourcePoint" />
            <mxPoint x="-535.24" y="1827" as="targetPoint" />
          </mxGeometry>
        </mxCell>
        <mxCell id="__wuMlbI5ePI79pT0euX-320" value="&lt;font style=&quot;font-size: 8px;&quot;&gt;로그인 페이지 이동&lt;/font&gt;" style="shape=callout;whiteSpace=wrap;html=1;perimeter=calloutPerimeter;position2=0.67;direction=north;base=5;size=35;position=0.67;fillColor=#d5e8d4;strokeColor=#82b366;align=center;" vertex="1" parent="1">
          <mxGeometry x="-481" y="1980" width="115" height="30" as="geometry" />
        </mxCell>
        <mxCell id="__wuMlbI5ePI79pT0euX-321" value="Server" style="shape=umlLifeline;perimeter=lifelinePerimeter;whiteSpace=wrap;html=1;container=0;dropTarget=0;collapsible=0;recursiveResize=0;outlineConnect=0;portConstraint=eastwest;newEdgeStyle={&quot;edgeStyle&quot;:&quot;elbowEdgeStyle&quot;,&quot;elbow&quot;:&quot;vertical&quot;,&quot;curved&quot;:0,&quot;rounded&quot;:0};" vertex="1" parent="1">
          <mxGeometry x="-240" y="1760" width="100" height="290" as="geometry" />
        </mxCell>
        <mxCell id="__wuMlbI5ePI79pT0euX-322" value="" style="html=1;points=[];perimeter=orthogonalPerimeter;outlineConnect=0;targetShapes=umlLifeline;portConstraint=eastwest;newEdgeStyle={&quot;edgeStyle&quot;:&quot;elbowEdgeStyle&quot;,&quot;elbow&quot;:&quot;vertical&quot;,&quot;curved&quot;:0,&quot;rounded&quot;:0};" vertex="1" parent="__wuMlbI5ePI79pT0euX-321">
          <mxGeometry x="45" y="130" width="10" height="100" as="geometry" />
        </mxCell>
        <mxCell id="__wuMlbI5ePI79pT0euX-323" value="요청 실패" style="html=1;verticalAlign=bottom;endArrow=open;dashed=1;endSize=8;edgeStyle=elbowEdgeStyle;elbow=vertical;curved=0;rounded=0;" edge="1" parent="1" target="__wuMlbI5ePI79pT0euX-314">
          <mxGeometry x="-0.002" relative="1" as="geometry">
            <mxPoint x="-350" y="1940.24" as="targetPoint" />
            <Array as="points" />
            <mxPoint x="-195" y="1940.2055172413793" as="sourcePoint" />
            <mxPoint as="offset" />
          </mxGeometry>
        </mxCell>
        <mxCell id="__wuMlbI5ePI79pT0euX-324" value="요청 성공" style="html=1;verticalAlign=bottom;endArrow=open;dashed=1;endSize=8;edgeStyle=elbowEdgeStyle;elbow=vertical;curved=0;rounded=0;" edge="1" parent="1" target="__wuMlbI5ePI79pT0euX-314">
          <mxGeometry x="0.0039" relative="1" as="geometry">
            <mxPoint x="-355" y="1990" as="targetPoint" />
            <Array as="points" />
            <mxPoint x="-195" y="1990" as="sourcePoint" />
            <mxPoint as="offset" />
          </mxGeometry>
        </mxCell>
        <mxCell id="__wuMlbI5ePI79pT0euX-325" value="&lt;font size=&quot;1&quot;&gt;로그아웃 요청&lt;/font&gt;" style="html=1;verticalAlign=bottom;endArrow=block;edgeStyle=elbowEdgeStyle;elbow=vertical;curved=0;rounded=0;" edge="1" parent="1" target="__wuMlbI5ePI79pT0euX-322">
          <mxGeometry x="0.0323" relative="1" as="geometry">
            <mxPoint x="-350" y="1890" as="sourcePoint" />
            <Array as="points">
              <mxPoint x="-360" y="1890" />
            </Array>
            <mxPoint x="-200" y="1890" as="targetPoint" />
            <mxPoint as="offset" />
          </mxGeometry>
        </mxCell>
        <mxCell id="__wuMlbI5ePI79pT0euX-326" value="" style="endArrow=none;dashed=1;html=1;rounded=0;" edge="1" parent="1" target="__wuMlbI5ePI79pT0euX-327">
          <mxGeometry width="50" height="50" relative="1" as="geometry">
            <mxPoint x="-535.24" y="2037" as="sourcePoint" />
            <mxPoint x="-535.24" y="1827" as="targetPoint" />
          </mxGeometry>
        </mxCell>
        <mxCell id="__wuMlbI5ePI79pT0euX-327" value="" style="rounded=0;whiteSpace=wrap;html=1;" vertex="1" parent="1">
          <mxGeometry x="-540" y="1830" width="10" height="40" as="geometry" />
        </mxCell>
        <mxCell id="__wuMlbI5ePI79pT0euX-328" value="&lt;font style=&quot;font-size: 8px;&quot;&gt;Loading, alert(&quot;다시 시도해주세요&quot;)&lt;br&gt;&lt;/font&gt;" style="shape=callout;whiteSpace=wrap;html=1;perimeter=calloutPerimeter;position2=0.33;direction=north;base=5;size=35;position=0.67;fillColor=#f8cecc;strokeColor=#b85450;" vertex="1" parent="1">
          <mxGeometry x="-481" y="1920" width="115" height="30" as="geometry" />
        </mxCell>
        <mxCell id="__wuMlbI5ePI79pT0euX-329" value="PATH: baseUrl/user/" style="ellipse;shape=cloud;whiteSpace=wrap;html=1;" vertex="1" parent="1">
          <mxGeometry x="-810" y="1700" width="190" height="80" as="geometry" />
        </mxCell>
        <mxCell id="__wuMlbI5ePI79pT0euX-331" value="&lt;h1 style=&quot;font-size: 10px;&quot;&gt;&lt;font color=&quot;#ff6666&quot;&gt;&lt;span style=&quot;caret-color: rgb(255, 181, 112);&quot;&gt;로그아웃 시 토큰 삭제&lt;/span&gt;&lt;/font&gt;&lt;/h1&gt;&lt;h1 style=&quot;font-size: 10px;&quot;&gt;&lt;span style=&quot;font-weight: 400;&quot;&gt;localStorage.removeItem(access_token)&lt;/span&gt;&lt;/h1&gt;" style="text;html=1;spacing=5;spacingTop=-20;whiteSpace=wrap;overflow=hidden;rounded=0;align=left;" vertex="1" parent="1">
          <mxGeometry x="-790" y="1855" width="240" height="55" as="geometry" />
        </mxCell>
      </root>
    </mxGraphModel>
  </diagram>
</mxfile>
